<svg width="1389" height="280" viewBox="0 0 1389 280" fill="none" xmlns="http://www.w3.org/2000/svg">
<rect x="9" y="63" width="174" height="174" rx="31" fill="#FE69CC"/>
<path d="M217.924 216V76H245.324V135H246.324L271.324 76H299.524L270.324 142.8L300.924 216H270.524L246.724 154.8H245.324V216H217.924ZM375.749 169.8H354.349C351.549 173.267 350.149 177.6 350.149 182.8C350.149 188 351.616 192.067 354.549 195H375.749V169.8ZM332.749 113.8H382.349C390.349 118.6 395.616 124.133 398.149 130.4C400.683 136.533 401.949 144.933 401.949 155.6V185.6C401.949 196.667 402.216 206.8 402.749 216H379.949L376.349 208.8C371.149 213.6 363.816 216 354.349 216H341.749C330.416 208.533 324.749 197.8 324.749 183.8C324.749 169.667 330.549 158.533 342.149 150.4H360.949C366.149 150.4 371.016 152 375.549 155.2V145.2C375.549 140 373.283 136.533 368.749 134.8H332.749V113.8ZM442.026 171.4V134.8H428.226V113.8H442.026V86H468.626V113.8H485.026V134.8H468.626V177.8C468.626 185.933 470.026 191.667 472.826 195H485.026V216H456.626C449.559 209.467 445.292 202.4 443.826 194.8C442.626 188.4 442.026 180.6 442.026 171.4ZM565.554 169.8H544.154C541.354 173.267 539.954 177.6 539.954 182.8C539.954 188 541.421 192.067 544.354 195H565.554V169.8ZM522.554 113.8H572.154C580.154 118.6 585.421 124.133 587.954 130.4C590.487 136.533 591.754 144.933 591.754 155.6V185.6C591.754 196.667 592.021 206.8 592.554 216H569.754L566.154 208.8C560.954 213.6 553.621 216 544.154 216H531.554C520.221 208.533 514.554 197.8 514.554 183.8C514.554 169.667 520.354 158.533 531.954 150.4H550.754C555.954 150.4 560.821 152 565.354 155.2V145.2C565.354 140 563.087 136.533 558.554 134.8H522.554V113.8ZM653.755 164C653.755 169.6 654.622 175.333 656.355 181.2C658.089 186.933 660.489 191.533 663.555 195H693.555V216H649.755C634.022 203.467 626.155 186.133 626.155 164C626.155 141.867 634.555 125.133 651.355 113.8H693.555V134.8H663.555C657.022 141.6 653.755 151.333 653.755 164ZM773.485 113.8H792.485C798.352 121.267 802.352 128.733 804.485 136.2C806.618 143.667 807.685 153 807.685 164.2V216H781.085V162.2C781.085 149.533 779.352 140.4 775.885 134.8H753.485V216H726.885V76H753.485V121C756.418 118.333 759.152 116.467 761.685 115.4C764.352 114.333 768.285 113.8 773.485 113.8ZM844.151 216V113.8H870.551V216H844.151ZM844.151 76H870.551V103H844.151V76ZM960.737 216V76H1033.74V100H988.137V135H1027.74V158.2H988.137V216H960.737ZM1122.18 216H1078.58C1065.24 203.6 1058.58 186.667 1058.58 165.2C1058.58 154.4 1060.04 145 1062.98 137C1066.04 129 1070.84 121.267 1077.38 113.8H1124.18C1131.11 121.8 1135.84 129.6 1138.38 137.2C1140.91 144.667 1142.18 154 1142.18 165.2C1142.18 186.667 1135.51 203.6 1122.18 216ZM1092.78 195H1107.98C1112.78 185.667 1115.18 175.067 1115.18 163.2C1115.18 151.333 1112.71 141.867 1107.78 134.8H1092.78C1087.98 141.6 1085.58 151.267 1085.58 163.8C1085.58 176.2 1087.98 186.6 1092.78 195ZM1176.69 216V113.8H1195.69L1200.69 124.6C1206.03 117.4 1212.76 113.8 1220.89 113.8H1228.69V140.6H1203.29V216H1176.69ZM1304.57 113.8H1318.77L1323.77 120.8C1326.57 118.267 1329.23 116.467 1331.77 115.4C1334.43 114.333 1338.37 113.8 1343.57 113.8H1365.77C1371.63 121.267 1375.63 128.733 1377.77 136.2C1379.9 143.667 1380.97 153 1380.97 164.2V216H1354.37V162.2C1354.37 149.933 1352.5 140.8 1348.77 134.8H1329.57C1332.5 140.533 1333.97 148.333 1333.97 158.2V216H1307.37V162.2C1307.37 149.533 1305.63 140.4 1302.17 134.8H1286.77V216H1260.17V113.8H1280.97L1284.57 121C1287.5 118.333 1290.23 116.467 1292.77 115.4C1295.43 114.333 1299.37 113.8 1304.57 113.8Z" fill="#434343"/>
<rect y="53" width="174" height="174" rx="31" fill="#FF93DB"/>
<path d="M61.5 53L80.1195 100.25H42.8805L61.5 53Z" fill="white"/>
<path d="M61.5 53L80.1195 100.25H42.8805L61.5 53Z" fill="white"/>
<path d="M61.5 227L42.8805 179.75L80.1196 179.75L61.5 227Z" fill="white"/>
<rect x="58" y="85" width="7" height="118" fill="white"/>
</svg>
